<?xml version="1.0" encoding="UTF-8"?>
<svg version="1.1" viewBox="0 0 1976 1864" width="1280" height="1280" xmlns="http://www.w3.org/2000/svg">
<path transform="translate(947,2)" d="m0 0 48 1 38 3 29 4 29 5 32 8 30 9 29 10 27 11 26 12 11 7 9 8 7 11 5 19-2 7-3 2-8-1-57-19-42-12-28-7-23-5-38-7-32-4-40-4-49-2h-51l-31 2-49 6-49 8-22 5-38 11-36 12-31 12-29 12-20 9-46 23-59 35-17 11-19 13-18 13-16 12-13 10-17 14-8 7-10 9-8 7-10 9-8 7-7 7h-2v2l-8 7-41 41-7 8-7 7-7 8-10 11-8 10-13 16-11 14-13 16-21 28-10 14-14 20-12 17-22 33-11 18-17 28-13 23-8 13-2 1-1-4 5-12 16-29 12-22 16-28 17-28 14-22 23-34 16-24 10-13 9-13 14-18 11-14 12-15 7-9 11-13 9-11 7-7 7-8 15-16 11-12 12-12 8-7 25-25 8-7 8-8 8-7 10-9 10-8 13-11 13-10 18-14 36-26 18-12 20-13 15-9 24-14 18-10 21-10 16-8 30-13 40-16 23-8 21-7 41-11 26-6 31-5 46-4 35-2z" fill="#6D859A"/>
<path transform="translate(1615,730)" d="m0 0 1 2-7 8-9 9-11 17-5 13-1 8v11l2 15 7 21 10 21 12 19 10 14 9 12 11 14 13 16 11 13 14 17 13 17 10 13 11 17 8 17 5 16 3 17 2 20v49l-5 48-2 43v27l1 27 1 9h8l2 1-2 4-6 6 1 16 6 31 5 16 1 2 12-3 39-15 30-13 18-10 13-9 16-13 18-18 10-13 9-15 6-14 6-20 7-36 3-2 1 1-1 31-4 24-7 24-8 18-8 14-12 17-13 15-10 10-11 9-13 9-20 12-16 8-18 7-17 6-18 9 1 9 13 32 8 17 13 23 14 25 10 17 14 27 11 26 6 18 6 28 3 21 2 28v25l-2 28-2 5-1-4v-61l-4-29-6-27-6-20-11-25-12-24-12-21-17-28-14-25-15-31-9-25-3-4-12 2-16 5-21 9-21 12-19 13-13 10-10 9-8 8-9 11-11 15-11 18-13 25-9 23-7 21-8 29-3 3v-7l6-26 12-35 7-17 10-19 11-19 16-24 10-13 13-15 9-10 17-17 11-9 14-10 28-15 14-8-1-13-6-28-4-21-19 7-29 12-16 5-21 5-16 2h-55v-2l4-1 30-1 20-2 35-10 26-9 28-12 10-5-3-31v-56l3-40-11-3-18-6-13-7-8-7-7-14v-7l4-7 11-9 3 2 8 16 7 11 8 6 10 3 1-4-6-12-7-9-12-14-1-3 4 1 18 11 4 2h4v-21l-5-26-7-20-12-23-10-15-13-18-14-17-24-28-13-17-13-18-12-19-8-16-8-21-6-26-1-6v-18l5-21 6-14 7-10 11-13 15-15z" fill="#6D859A"/>
<path transform="translate(818,578)" d="m0 0h2l-1 5-12 25-12 28-15 39-7 21-10 40-7 35-4 32v76l2 15 7 25 9 25 11 25 13 27 12 22 15 24 14 20 9 12 9 11 8 9 12 9 8 3h17l12-3 12-6 13-11 10-11 10-16 6-8h2l-1 6-9 32-5 12-9 15-8 10-6 7 3 11 2 5-1 3-15-9-11-8-21-14-17-9-12-9-7-6-7-8-8-9-11-15-10-15-11-17-8-11-12-17-15-22-16-24-10-18-11-24-2-2h-5v27l4 36 6 34 7 28 23 69 14 44 12 40 10 38 7 34 4 28 3 33v23l-2 21-1 5h-2l-1-2-1-54-3-25-7-39-8-30-9-27-14-33-13-29-14-35-11-29-8-26-9-34-5-26-4-30-3-35v-21l1-24 3-27 5-28 9-37 9-30 12-32 10-23 13-28 13-26 10-17 8-12 8-10 11-13 8-12z" fill="#6D859A"/>
<path transform="translate(947,2)" d="m0 0 48 1 38 3 29 4 29 5 32 8 30 9 29 10 27 11 26 12 11 7 9 8 7 11 5 19-2 7-3 2-8-1-57-19-42-12-28-7-23-5-38-7-32-4-40-4-49-2h-51l-31 2-49 6-49 8-22 5-38 11-36 12-31 12-29 12-9 4-4-1 6-4 16-7 7-2 1-3 9-2 7-3 10-4 11-4 8-4h4v-2l7-2h5v-2l18-6 18-5 2-1h6l2-4 16-4 10-4 2 4h4l-2-1v-2h-2v-3l2-2-4-1 1-2 11-1 1 4-2 1 1 3 8 1h10v-2l-7-1 3-2h5l2-1 7 1 1 2 15-3 3-2h3l1-3 7-2v-2l-5-2-2-2 3-3h-6v-3l8-2 2-2 5-2-10-4-2-4 1-2-4-1 1-6 11-1 3-5-11 2-14 1-16 3-4 3-5 1h-12v2l-7 1-7 2-5 2-5 1-7 2-6 3-7 1-5 2-8 2-9 2h-3v2l-10 3-7 3-4-1 3-3 26-9 21-7 41-11 26-6 31-5 46-4 35-2z" fill="#62738A"/>
<path transform="translate(1550,35)" d="m0 0h13l17 3 10 4 12 8 10 9v2l-13 8-32 16-14 10-4 2v2h-2v2h-2v2h-2v2h-2l-2 4-9 11-9 15-15 26-6 10-6 11-15 24-7 10-11 14-9 10-3 4h-2l-1 3-8 7-12 10-15 10-10 9-12 12-10 7-14 7-29 12-50 19-27 13-23 14-19 13-13 10-10 9-8 7-20 20-7 8-9 10-13 18-3 1 2-6 12-23 8-14 14-20 10-13 9-10 12-13 16-15 10-9 17-13 15-10 21-12 14-7 24-10 30-11 9-6 9-10 5-5 10-7 11-6 18-11 11-9 12-11 11-13 12-18 10-16 15-22 8-12 13-15 7-7 9-11 8-9 4-6v-6l-9 1-18 7-31 10-41 12-42 11-13 5-19 10-21 13-5 3-3-1 9-8 20-14 17-12 16-11 19-13 17-12 13-8 24-11 35-13 20-6 15-3z" fill="#62748A"/>
<path transform="translate(1674,227)" d="m0 0h3v4l-14 10-13 11-11 13-9 14-12 23-14 29-11 23-9 15-11 12-9 6-11 4-20 4h-3l5 24 4 21 1 10v31l-5 38-4 24-7 45-3 25-1 20 3 27 5 26 3 12-1 4-7-6-7-11-8-20-5-17-5-32v-41l3-28 5-35 5-30v-33l-5-21-6-17-7-13-13-18-10-15-13-24-4 4-8 13-9 12-14 17-10 9-14 8-13 5-9 2h-31l-27-2h-13l-22 4-31 8-3-1 8-5 34-16 25-9 32-8 39-8 21-7 17-9 10-8 9-10 8-16 3-10 2-10 3 3 4 11 4 6 8 4 17 3h16l22-5 17-8 17-11 10-8 12-11 12-12 8-7 17-14 20-14 16-9z" fill="#6D859A"/>
<path transform="translate(1615,730)" d="m0 0 1 2-7 8-9 9-11 17-5 13-1 8v11l2 15 7 21 10 21 12 19 10 14 9 12 11 14 13 16 11 13 14 17 13 17 10 13 11 17 8 17 5 16 3 17 2 20v49l-5 48-2-1-1 8-1 3-1 38-1 13-2-1-1-3-2-1-1-4 2-4-1-10 1-4v-21l-1-9 1-11-2-1-1 2v-5l-11-3-18-6-13-7-8-7-7-14v-7l4-7 11-9 3 2 8 16 7 11 8 6 10 3 1-4-6-12-7-9-12-14-1-3 4 1 18 11 4 2h4v-21l-5-26-7-20-12-23-10-15-13-18-14-17-24-28-13-17-13-18-12-19-8-16-8-21-6-26-1-6v-18l5-21 6-14 7-10 11-13 15-15z" fill="#6D859A"/>
<path transform="translate(1507,121)" d="m0 0h4l-1 6-4 5h-2l-1 4-5 10-2 6-2 1-2 7-3 1-1 7-1 3h-2l-2 5-2 10v3h-2l-1 8-3 7-2 4h-2l-6 13h-2l-2 4-4 5h-2l-2 5-10 7-2 1v2l-5 2-2 2h-3l-2 4-5 3h-2v2l-5 1-2 5-5 4h-2v2l-5 3-4 4h-3v2h-2v2l-2 1v3h-2v2h-2l-1 3h-3l-2 4-4 3h-3v3l-9 5-13 5-6 3-7 1-5 3-8 2-1 2-9 2-10 4-6 2-2-1-1 3-4 2-3-1v2h-3v2l-9 2v2l-5 2h-3v2l-3 1-3 3-14 7-1 2-12 6v3l-11 7-14 10-10 8-14 12-23 23-7 8-9 10-13 18-3 1 2-6 12-23 8-14 14-20 10-13 9-10 12-13 16-15 10-9 17-13 15-10 21-12 14-7 24-10 30-11 9-6 9-10 5-5 10-7 11-6 10-6 6-1 11-7 9-8 5-6 5-4 3-5h2l2-4 5-8 5-7 4-7 8-12h2v-2h2v-5l4-2h4l2-5 5-8 4-6 5-5 3-1 1-5 6-7z" fill="#6D8499"/>
<path transform="translate(635,70)" d="m0 0h3l1 4-2 4h-2v2l-7 2-5 3-4 1v2l-8 2-2 4-4 1-4 3-10 4h-5v2h-2l-2 4-5 2v2h-2l1 4-3 5-5 1-4 6-8 5h-3l-2 4h-3l-2 5-2 2h-4l-1 2-2-1v2h-5l-1 2-4 3h-3v2h-3v2l-5 2-4 2v2l-12 8-3 1-1 3-4 2h-3l-2 5-3 5-8 4-4 1-2 5-7 3-5 5-3 2-4 1-1 3-6 4-4 2-1 2-5 3-5 5-4 3h-2l-1 2-3-1v3l-5 2-1 3-5 4-3 1-5 6-5 4h-2l-1 3-8 6h-2v2h-2v2l-4 4h-3l-1 3-6 5-5 6-4 1-2 4-9 7h-2v2h-2v2h-2v2h-2v2h-2v2h-2v2h-2v2h-3l-1 3-10 8-4 4-4 3-1 3h-2v2h-2v3l-3 1-2 4-7 6-4 5-5 2-1 4-6 7-5 5-2 3h-2l-1 3-5 5-7 8h-2l-2 4h-2l-2 4-7 8-9 12h-2l-2 5-6 7h-3l-2 4-5 6-2 1-2 5h-2l-2 5h-2l-1 4-3 3-6 12-2 3-4 2-3 5-4 4-3 5h-2l-1 5-3 1v2h-2v-5l-3-2 30-45 10-13 9-13 14-18 11-14 12-15 7-9 11-13 9-11 7-7 7-8 15-16 11-12 12-12 8-7 25-25 8-7 8-8 8-7 10-9 10-8 13-11 13-10 18-14 10-7 4-1 4-3h2v-2l12-7 2-2h4l2-4 5-4h5v-2l5-4h3v-2l5-2v-2l12-6h2l1-3 6-3 10-6h3l1-3 4-2h4v-2l5-1 1-2h2l5-4 7-3 7-2 3-3 5-1 2-3 4 1-1-4h4v-2h2v2l8-5 5-1 3-3 2 1 1-4 2 1 1-3 5-1z" fill="#7E98AB"/>
<path transform="translate(1166,653)" d="m0 0 4 2 6 13 2 13 1 34 2 10 5 10 2 2h4l3-6 2-15 3-5 8-5 4 1 5 16 4 12 8 14 9 12 7 3 11 1h19l5 5 1 9-4 15-4 13v7l4 19 1 18-3 22h-2l-1-3-2-20-3-3-23-12-25-15-11-7v-1l13 1h12l21-2 11-2 1-1v-5l-4-4-5-1-6 2h-24l-14-3-16-7-11-7-11-11-6-10-6-13-2-9-1-12 2-20 2-16 1-38z" fill="#6D859A"/>
<path transform="translate(787,627)" d="m0 0 1 4 2 5-4 8-1 5-9 26-3 7-3 11-3 10-1 4-2 7-2 4-3 9-5 22-3 10-1 2v11h-2l-1 4-1 19h-2v9l-1 2-3 21v22l1 22 1 5-1 2 1 5 1 16-2 4v5l-7-1-5-3-7-1-3 1h-3l-2 4v5l1 2-2 9-4 2-1 6h-2l2 11-1 4-3-1-1-5 1-7-1 1-2-1v-18h-1l-1-26v-10l3-29 2-16 4-21 1-1 3-15 3-13 4-17 1-7 7-21 12-30 14-31 4 1 1-4 2-4h2l1-5 3-8h2l1-4 2 1-1-3 3-3h2l1-6 3-6 3-2 2-5h2z" fill="#7E98AB"/>
<path transform="translate(1107,26)" d="m0 0h9v2l4-1 10 1 3 3 17 5 11 3 9 3 10 4 8 2v2l9 2 7 3 12 4v2l9 2 22 12 7 8 4 6 3 13v13l-9-2-29-10-14-4-7-3-34-10-16-4-31-7-19-4-1-1-13-2-7-2-3-2-3 1-7-2-10-1v-5l4-2h2l-2-2 6-2 4-2 9-1 7-3h3l1-4 3-2h3v-2h3l-1-4-1-3 4 1v2l3-1-1-3z" fill="#6C8499"/>
<path transform="translate(1552,754)" d="m0 0 1 3-7 11-12 17-9 12-8 11-22 33-13 22-8 16-8 20-7 26-7 37-1 13v65l3 48 5 52 1 13v69l-1 18-2 9-2-1v-47l-4-50-8-47-5-31-5-42-1-14v-64l2-18 5-26 7-21 10-22 10-17 9-12 18-20 13-14 7-8 18-20 7-8 9-9h2v-2z" fill="#6D8499"/>
<path transform="translate(1359,1476)" d="m0 0h10l7 4 7 8 2 6-7-1-8-2h-11l-9 3-9 7-7 7-10 17-8 22-2 12 7-1 19-8 6-3h2l-1 4-5 5-9 8-11 8-12 11-11 11-7 8-9 9-5 6-6 5h-2l-3-9v-20l3-14 6-16 12-23 11-18 9-12 11-12 14-11 19-9z" fill="#6D859A"/>
<path transform="translate(1457,304)" d="m0 0 3 3 4 11-1 5-4-1v-2l-2 1-4 13 2 9-7 10-7 11-11 13-8 10-10 9-14 8-13 5-9 2h-31l-27-2h-13l-22 4-31 8-3-1 8-5 34-16 25-9 32-8 39-8 21-7 17-9 10-8 9-10 8-16 3-10z" fill="#6D859A"/>
<path transform="translate(1541,894)" d="m0 0 2 2-8 24-11 27-5 15-6 25-11 58-13 53-5 26-3 32-2 32-2 45-2-2-2-9-2-34v-25l2-42 4-60 4-24 8-32 9-26 9-21 12-25 15-28z" fill="#6D859A"/>
<path transform="translate(989,1224)" d="m0 0h2l7 14 7 17 12 25 10 18 6 12 13 21 13 18 9 13 7 11 7 17 4 14 1 12-2 10-6 15-10 19-5 12-7 25-3 3-1-3v-20l5-19 8-22 1-4v-12l-6-17-18-40-14-32-14-31-11-27-12-36-3-10z" fill="#6D859A"/>
<path transform="translate(1135,1423)" d="m0 0 4 2 11 24 6 20 4 19 3 22 1 16v11l-2 25-5 36-1 12 11 3 13 5 11 6 18 13 13 11 13 13 2 4-4-2-11-9-16-13-14-10-9-5-4-1-14 1-5 1h-13l-7-7-5-8-2-7-1-12 3-17 5-17 6-20 3-22v-26l-3-25-6-25-5-15z" fill="#6D859A"/>
<path transform="translate(1717,1166)" d="m0 0 3 1-1 17 1 7v18l-1 4 1 10-2 4v3l3 1 2 4v-18l1-33 2-6 1-9h1v21l-1 27v27l1 27 1 9h8l2 1-2 4-6 6 1 16 6 31 3 13-10 4-4-13-7-35-1-6-19 7-29 12-16 5-21 5-16 2h-55v-2l4-1 30-1 20-2 35-10 26-9 28-12 10-5-3-31v-56l3-35z" fill="#64758C"/>
<path transform="translate(1213,687)" d="m0 0 5 1 18 8 14 8 16 10 7 3h10l12-5 5-2v-7l-4-8 5 1 10 5 5 4 3 6v11l-8 24v7l5 12v3l-13-1-12-6-11-8-11-9-23-23-7-8-11-11-11-9z" fill="#6D859A"/>
<path transform="translate(1464,1488)" d="m0 0h1l-1 9-6 16-8 16-10 16-11 14-12 13-12 12-14 11-14 10-18 12-19 14-14 11-14 9-3 2-4-1 5-12 6-9 10-11 8-7 15-12 19-13 22-15 13-10 10-8 12-11 7-7 11-14 8-13 10-19z" fill="#6D859A"/>
<path transform="translate(1723,1367)" d="m0 0h3l-1 3-5 4-3 1-4 4-9 5-14 8-10 3v2h-3v2l-6 5h-2v2l-8 6-1 2-3 1-2 4h-3l-1 4-3 5-3 1 1 5h-2l1 2 3-1 4-5 11-6 7-4h3l2-4 7-3 5-2 2-2 4 1-13 8-16 10-14 10-14 11-13 13-9 11-11 15-11 18-13 25-9 23-7 21-8 29-3 3v-7l6-26 12-35 7-17 10-19 11-19 16-24 10-13 13-15 9-10 17-17 11-9 14-10 28-15z" fill="#65778E"/>
<path transform="translate(1546,992)" d="m0 0h2l9 15 10 19 7 6 11 4 8-1 4-6 1-3h2l4 16 1 10-2 10-3 3h-11l-13-4-9-7-9-10-7-14-4-13-2-20z" fill="#6D859A"/>
<path transform="translate(1457,304)" d="m0 0 3 3 4 11-1 5-4-1v-2l-2 1-4 13 2 9-7 10-7 11-11 13-8 10-10 9-14 8-13 5-9 2h-31l-27-2h-13l-22 4-31 8-3-1 8-5 28-13h2v2l5 1 7 1 11-1h30v2h7l4 1 12-2 20-3 5-3 7-1 5-3h3v-2l5-3h2v-2l4-1v-2l6-4 2-5 3-2v-3l6-5 1-4-3-3 1 3-8 3-6 2-1 2-11 2-4 2-8 1 2-3 16-6 15-8 10-8 9-10 8-16 3-10z" fill="#63758C"/>
<path transform="translate(1668,958)" d="m0 0 7 1 2 5 1 4 7 1 2 3 1 7h3l2 5 4 5 2 1 1 5 3 1 5 5 3 4v3l3 1 5 12v10l2 5 1 8 1 4 1 16v11l-1 5-3-4 1-4-2-1v-6h-2l-1-5 2-6-4-6-1-4-1-3h-2v-4l-4-2-2-6-2-2-1-4-3-3v-2h-2v-2l-3-2-3-6-2-5-3-1v-2l-4-2-1-13-3-1-1-4-3-1 1-9h-2l-4-11z" fill="#7E98AB"/>
<path transform="translate(1267,803)" d="m0 0h1v7h3l2 4 4 19 1 18-3 22h-2l-1-3-2-20-3-3-23-12-25-15-11-7v-1l13 1h12l21-2 11-2z" fill="#6D859A"/>
<path transform="translate(1209,747)" d="m0 0h8l1 2 3 1 5 8 5 5 4 3 9 2 1 3 4 1v2l2 2-1 2 4 1-1 2-7 1-3-1v2l-6 1-10-1-4 2-4-2v-2h-8l-7-2-4-2-2-3-5-2-1-4-4-2v-2l-5-2-3-1 1-6 5 1v2h4l1-2h2l-1-4 4-2 5 2 5 1 2-5z" fill="#7F99AC"/>
<path transform="translate(1520,481)" d="m0 0 5 1 1 3h4l1 9 1 8-2 7-1 7-2 4-1 12-1 2h-2v3h2l-3 9-1 7-1 2 3 5-1 4h-2v3h-2v8l-4 1-2-2-2 5h-2l-1 4-3-2v-13l1-16 2-10 1-16 2-4v-4h2v-7l3-8h2v-10l2-6h3l-2-3z" fill="#7E98AB"/>
<path transform="translate(1552,754)" d="m0 0 1 3-7 11-12 17-9 12-8 11-22 33-13 22-8 16-8 20-7 26-6 31-2 2-1-4 4-23 1-5 2-9 11-33 7-15 6-12v-4h2l2-5 3-4 2-8 2-1 2-2v-3h2l-1-8 3-3h-2l-1 2-6 5-5 5-4 5h-2l-3 6h-2l-2 5-3 5h-2l-2 5-9 18h-2l-1 4-1-2 8-16 9-15 11-14 16-17 11-12 7-8 18-20 7-8 9-9h2v-2z" fill="#6D8499"/>
<path transform="translate(1721,1250)" d="m0 0h2l1 7v11l2 14 6 1-1 5-3 1v9l-1 3-3 2-2 3-2 1-1-6-19 7-29 12-16 5-21 5-16 2h-55v-2l4-1 30-1 20-2 35-10 26-9 28-12 6-3 7-1 1-2-1-7 1-20z" fill="#64768D"/>
<path transform="translate(1247,325)" d="m0 0 2 1-5 4-1 3-4 2-1 2h-2l-1 3h-2v4h-5l-6 5-3 7-3 1-2 3-5 3-3 1 1 4-6 2-1 2-3 1v5l-2 4-5 5h-2v2h-3l-1 10h3v-2l7-1v-2l6-2-6 7-8 7-20 20-7 8-9 10-13 18-3 1 2-6 12-23 8-14 14-20 10-13 9-10 12-13 16-15 10-9 17-13z" fill="#6C8499"/>
<path transform="translate(1496,819)" d="m0 0h2l-2 5v6h-2l1 5h-2l-1 2-2-1-1 8-8 12-5 2-6 10-6 12v2l-2 1-4 10-2 6h-2v9l-2 7-2 10-1 9-4 11h-2l-1 2-1-5h2l1-14-1-5 2-3 1-6v-4l2-15 4-11 7-14 8-18 6-10h2l1-3 2-3h2l2-4 4-4h2l2-4h2l2-4z" fill="#7E98AB"/>
<path transform="translate(1326,1496)" d="m0 0h5l-5 6-2 1v5l-2 4-2 2-3 7h-2l1 3-4 8-4 10-3 5-1 7-3 5-1 7h-2l-2 5-3 3-3 5h-2l-1 4-2 4-5 2-1 2h-4l-1-5 3-8-1-3 5-13 4-6 2-1v-2h2l1-5 5-6 6-8 3-7h2l1-7 3-3h2l2-4 2-7 5-5 3-1z" fill="#7E98AB"/>
<path transform="translate(818,578)" d="m0 0h2l-1 5-12 25-12 28-13 33h-4l2-9 5-14 3-9 1-2-2-2v-5l-1 3-2 1-2 5-3 1-1 4-3 8h-2l-2 6h-2l-1 3h-2l-1 5-3 8h-2l-2 5-1 3h-3l1-5 15-30 10-17 8-12 8-10 11-13 8-12z" fill="#6D859A"/>
<path transform="translate(1818,1534)" d="m0 0 4 1v3l3 1v-2h3l11 25 7 21 6 28 3 21 2 28v25l-2 28-2 5-1-4v-61l-4-29-6-27-6-20-11-25-7-14z" fill="#677A90"/>
<path transform="translate(1930,1175)" d="m0 0 2 1-1 31-4 24-7 24-8 18-8 14-12 17-13 15-3-1 5-6 2-1 1-3 2-1 3-6 3-1v-5l4-4 13-22 3-2-1-4 1-7-6 3-2-1 2-6 8-16 6-19 8-40z" fill="#65778D"/>
<path transform="translate(1259,325)" d="m0 0h2l1 6-7 3-3 4h-2l-1 3-4 4-5 1-1 5-4 1-1 3-4 1-2 4-6 1-1 5h-2v4h-3l-1 2-5 3-1 2h-4l-1 5-3 3h-2v3h-2v2h-2v2l-4 1v2h-3l1 2h-2v2h-3l-1-6 2-4h3v-2l6-4 1-4 1-3 1-4h3l2-4h4v-4l5-4 3-1 2-3 3-2 3-6 6-5h4l1-4h2l1-2h2l2-4h3v-2l5-3 6-1z" fill="#7E98AB"/>
<path transform="translate(1551,937)" d="m0 0h2l7 21 7 11 10 11 7 8 12 12 9 13 2 5-5-2-16-11-10-8-12-11-7-8-5-10-1-4z" fill="#63758C"/>
<path transform="translate(788,1227)" d="m0 0h4l2 8 3 1 6 29 4 28 3 33v23l-2 21-1 5h-2l-1-2-1-54-3-25-7-39-6-23z" fill="#66798F"/>
<path transform="translate(1529,1213)" d="m0 0 4 2 19 14 15 8 16 10 9 6 7 3 20 2 4 1v4h-14l-25-5-17-5-14-7-5-4-10-14-9-14z" fill="#64768D"/>
<path transform="translate(1452,1085)" d="m0 0 2 3 5 52 1 13v69l-1 18-2 9-2-1v-47l-4-50-5-30v-8l2 4 6 2-2-9z" fill="#65778E"/>
<path transform="translate(1250,715)" d="m0 0h8l6 2 1 2 12 1 7 3 10 1 3 5v3h2l-1 8-5 3h-3v2l-6 2-1 4-4-4v-7h-6l-3-2-5-2-5-5v-2l-4-2-6-7z" fill="#7E98AB"/>
<path transform="translate(142,535)" d="m0 0h3l-2 5-16 24-11 18-17 28-13 23-8 13-2 1-1-4 5-12 16-29 12-22 16-28 7-1-1-3 1-3h2v-2h2v-2l3-2-1-2z" fill="#677B91"/>
<path transform="translate(759,66)" d="m0 0 4 8-31 8-30 9-33 11-31 12-29 12-9 4-4-1 6-4 16-7 7-2 1-3 9-2 7-3 10-4 11-4 8-4h4v-2l7-2h5v-2l18-6 18-5 2-1h6l2-4 16-4z" fill="#64768C"/>
<path transform="translate(1615,730)" d="m0 0 1 2-7 8-9 9-11 17-5 13-1 8v11l2 15 4 13-1 3-4-1-3-7-4-14-4-2-1 9 2 14 1 5-1 7-2-2-3-16v-18l5-21 6-14 7-10 11-13 15-15z" fill="#64768C"/>
<path transform="translate(1674,227)" d="m0 0h3v4l-14 10-13 11-3 4h-2l-1-6 1-2-5 2-3 1v2l-4-1-5 5-11 9-1 2-4 2-9 9h-2l-1 3-8 6-5 5-8 7-3 1-1 3-5 3-7 6-14 8-22 9-1-2 18-8 17-10 13-10 13-12 12-12 8-7 17-14 20-14 16-9z" fill="#64758C"/>
<path transform="translate(1475,1100)" d="m0 0h2v17l2 6-1 9v11l1 5h1v23l-3 62-2-2-2-9-2-34v-25l2-42z" fill="#64768D"/>
<path transform="translate(1754,1393)" d="m0 0 2 1 6 17 12 28 2 6-4-1-3-2 3 4 1 5 2 1v2h2l-1 3 1 4 3 1-1 5h2v2l5 2 1 6 3 2-1 4 3 1 1 4 5 3-2 4-3-1-13-22-12-22-13-27-9-25v-4l3 1h3l2 1z" fill="#64768D"/>
<path transform="translate(1464,1488)" d="m0 0h1l-1 9-6 16-8 16-10 16-11 14-8 9h-2l2-4 2-3h2l1-4 1-2-9 2-2 1 1-5 11-12 10-11 9-13 14-26z" fill="#64768D"/>
<path transform="translate(179,482)" d="m0 0 2 1-2 5-13 19-13 18-7 10-8 3 2 2-5 1v2h-2v2h-2v6h-2l-1 2-3-2 17-29 18-27 3-5 4-1 1 5-1 2h2v-2l3-3 1-3 5-5z" fill="#6E869B"/>
<path transform="translate(1541,894)" d="m0 0 2 2-8 24-11 27-5 15-6 25-5 25h-2l1-11 5-33 4-10 1-7h2l-2-3-5 5 1 2h-2l-1 6h-3l1-5 11-23 15-28z" fill="#65778E"/>
<path transform="translate(1082,1402)" d="m0 0h3l2 9-1 12-5 13-8 16-8 17-7 24-3 7-2-3v-20l5-19 3-9 5-2 3-5h2v-2l6-2v-2l2-1v-7l2-7 1-11z" fill="#64768D"/>
<path transform="translate(1135,1423)" d="m0 0 4 2 11 24 6 20 4 19 1 14-4 1-2 4h-4l-2-16-3-25-6-25-5-15z" fill="#65778D"/>
<path transform="translate(1546,992)" d="m0 0h2l9 15 10 19 7 6 3 2-1 3-9-6-5-5-3-6v-2l-2 1v10l-1 1v5l4 4 6 9 4 4 9 5 4 1 6 2h7l3-1 1-3h4l-1 6-3 3h-11l-13-4-9-7-9-10-7-14-4-13-2-20z" fill="#63758C"/>
<path transform="translate(629,70)" d="m0 0 1 3-3 2-3-1-1 5-2-3-1 4h-3l-4 4-5 1-4 3h-2v-2h-2v2l-3 1v3l-4-1-2 4-6 1-4 4-9 3-7 4-2 2h-2l-5 1v2l-8 3-1 2h-3l-1 2-9 5-6 3-4 4-9 4h-2v2l-5 2v2l-5 3-3 1v2l-6 2-5 4-1 2-5 2-7 5-6 2v2l-7 5h-2v-2l18-13 16-11 12-8 17-11 15-9 24-14 18-10 21-10 16-8z" fill="#6E869B"/>
<path transform="translate(1518,617)" d="m0 0h1l3 36 4 24 5 21-1 4-7-6-7-11-8-20-5-17-3-19v-8l3 3v7l1 7 3 8 2 10 4 11 4 6 3-1-3-25-1-23 1-5z" fill="#64768D"/>
<path transform="translate(1198,392)" d="m0 0 2 1-17 16-17 17-7 8-9 10-13 18-3 1 2-6 12-23 8-14 5-7h4l1-3 2 1-1 4-2 2 3 1 2-4 6-3 5-6 5-5h2l1-3 5-1v-2z" fill="#64778D"/>
<path transform="translate(1639,259)" d="m0 0 3 2-11 16-14 27-13 27-11 23-9 15-11 12-9 6-11 4h-5l4-3 7-2 7-4h2v-2l6-5 7-9 12-23 8-16 2-5 3-4 3-7 12-24 1-4h2l2-5 3-6 3-3 4-6h2z" fill="#64768D"/>
<path transform="translate(1552,1173)" d="m0 0 5 5 8 12 6 5 12 5 15 6 6 5-2 4-10-1-15-4-6-3-7-7-11-21z" fill="#64768C"/>
<path transform="translate(1219,689)" d="m0 0 13 5 13 7 21 13 7 3 8 1-4 2-3 1-10-1-3-3-3-1h-7l1 7-7-6-26-26z" fill="#6D859A"/>
<path transform="translate(1552,754)" d="m0 0 1 3-7 11-12 17-9 12-5 7-2-1 3-6-9 4-4 3-1 3-4 4h-3l2-4 12-13 7-8 10-11 7-8 9-9h2v-2z" fill="#64768D"/>
<path transform="translate(1589,883)" d="m0 0 3 3 2 5 3 1 4 8 10 14 4 6 2 1 3 5 7 8 8 10 12 14v2l4 2 9 12 10 12 14 21v2l-4-2-12-17-14-17-24-28-13-17-13-18-12-19-3-6z" fill="#64768C"/>
<path transform="translate(1586,848)" d="m0 0 4 2 3 5v3l3 1v2h2l4 6v2l5 1 1 4h2l2 5 1 1 3 7 6 5 2 8 3 1v2l5 2 1 2h-3v2h-7l-7-9-3-6-2-1-1-3-3-2-2-6-4-7-2-2-2-4-6-5-3-8-3-4z" fill="#7E98AB"/>
<path transform="translate(1516,806)" d="m0 0v3l-21 32-13 22-8 16-8 20-7 26-6 31-2 2-1-4 4-23 1-5 2-9 11-33 7-15 6-12v-4h2l2-5 3-4 2-8 2-1 4-1 10-14 3-5z" fill="#66798F"/>
<path transform="translate(1150,1566)" d="m0 0 3 1-3 17 1 12-1 4v11l-2 5h-3l-3-4v-2h-2l-2-8-1-6v-5l2-1v-4l4-2 1-9 2-5-2 1v-3l7 1z" fill="#7F99AC"/>
<path transform="translate(1504,417)" d="m0 0 3 3 4 11 2 8 2 9v28l-2 14-1 2-1 14-3 16-2 15-3 21-1 14-1 3h-2v-11l5-38 6-40 1-4v-33l-5-21-2-6z" fill="#65778D"/>
<path transform="translate(802,1287)" d="m0 0 2 1 1 17 3 1 2 20v23l-2 21-1 5h-2l-1-2-1-54-3-25v-6z" fill="#677B91"/>
<path transform="translate(1164,1613)" d="m0 0 9 2 16 8 16 11 16 13 14 14 2 4-4-2-11-9-16-13-14-10-9-5-15-2-4-8z" fill="#687B91"/>
<path transform="translate(359,284)" d="m0 0m-2 1h2l-1 4-10 9-8 7-7 7h-2v2l-8 7-41 41-7 8-12 12v-3l5-6 10-10 5-6 1-3 4-4 3-1 7-8 2-1 2-4h3v-3h2v-2h2l1-4 6-4 2-3h2l1-3 4-1 1-3 3-3h3v-2h2v-2h2v-2h2v-2h2v-2h2v-2h2v-2l12-9z" fill="#6F889C"/>
<path transform="translate(1213,687)" d="m0 0 5 1 9 10 24 24 9 7 9 11 10 9 13 9 16 5 3-1 2-3 3 6v3l-13-1-12-6-11-8-11-9-23-23-7-8-11-11-11-9z" fill="#65788E"/>
<path transform="translate(719,765)" d="m0 0 1 3-5 23-4 15-1 7-2 7-4 23-3 27-1 12-3 3v-19l3-24 7-34 9-35z" fill="#6D8499"/>
<path transform="translate(1671,1115)" d="m0 0 4 2 4 5 4 8 9 11-1 3-6-2-6-3-6-2-4-5v-7l-4-1-1-3 2-4z" fill="#7F99AC"/>
<path transform="translate(1721,1250)" d="m0 0h2l1 7v11l2 14 6 1-1 5-3 1v9l-1 3-3 2-2 3-2 1-1-6-4-2 2-1-3-1v-4l6-3-1-8 1-20z" fill="#6D859A"/>
<path transform="translate(773,20)" d="m0 0 2 1-1 2h-2v2l-7 1-7 2-5 2-5 1-7 2-6 3-7 1-5 2-8 2-9 2h-3v2l-10 3-7 3-4-1 3-3 26-9 21-7z" fill="#64768D"/>
<path transform="translate(1853,1623)" d="m0 0h1l3 37v25l-2 28-2 5-1-4v-61l-2-16v-5h3z" fill="#879FB1"/>
<path transform="translate(791,612)" d="m0 0 2 4h-2l-2 4v3l1 3-3 2-1 3-2 1-2 5-3 1-1 4-3 8h-2l-2 6h-2l-1 3h-2l-1 5-3 8h-2l-2 5-1 3h-3l1-5 15-30 10-17 8-12z" fill="#6F879C"/>
<path transform="translate(1723,1367)" d="m0 0h3l-1 3-5 4-3 1-4 4-9 5-14 8-10 3v2h-3v2l-6 5h-2v2l-8 6-1 2-3-1 16-16 12-9 16-9z" fill="#63758C"/>
<path transform="translate(1841,1316)" d="m0 0h2v3h-3l-2 4-7 3h-4v2l-7 4-5 2-6 4-10 2v2l-9 2-10 5-9 3-2-1v2h-5l-3 1-3-1 9-4 40-16 24-11z" fill="#64768D"/>
<path transform="translate(1285,402)" d="m0 0h2v2l5 1 7 1 6 2v1l-22 4-31 8-3-1 8-5z" fill="#66798F"/>
<path transform="translate(1531,1256)" d="m0 0 5 1 9 4 10 6 5 8-2 2-10-1-10-5-6-8-2-6z" fill="#64768D"/>
<path transform="translate(142,535)" d="m0 0h3l-2 5-16 24-8 13-6 1 2-5 3-5 1-7 5-9 7-1-1-3 1-3h2v-2h2v-2l3-2-1-2z" fill="#64778D"/>
<path transform="translate(739,1078)" d="m0 0 4 2 2 9 2 3 1 6 5 10v5l2 1v5l3 4 4 10v2l-5-2-2-2v-6l-1-4-3-1-2-8h-4l1-3-1-3-1-1-2-5-1-4 1-3-4-7 1-2h-2z" fill="#7E98AB"/>
<path transform="translate(388,227)" d="m0 0h2l-2 4-4 4h-2v2l-5 5-10 9-5 4h-2l-1 3-8 7-22 22h-2l-1 3-5 5h-2l-1 3-5 5-7 8h-2l-2 4h-2l-2 4-7 8h-2v2l-4 2 2-4 9-9 7-8 15-16 11-11 8-7 25-25 8-7 8-8 8-7z" fill="#738CA0"/>
<path transform="translate(1470,161)" d="m0 0h1v5h-2v2h-2l-2 4-14 22-7 10-4 5-5 6h-2l-2 4h-2l-2 4-8 7-7 5-8 3 1-3 14-10 15-14 10-12 12-18 10-16z" fill="#64768D"/>
<path transform="translate(1247,325)" d="m0 0 2 1-5 4-1 3-4 2-1 2h-2l-1 3h-2v4h-5l-6 5-3 7-3 1-2 3-5 3-3 1 1 4-6 2-1 2-4 1v-2l3-2 1-4 17-16 10-9 17-13z" fill="#6D859A"/>
<path transform="translate(1361,1476)" d="m0 0h8l7 4 7 8 2 6-7-1-13-3 4-3-1-2-5-2-2 1-4-1-2 1v-3l5-1-1-2h2z" fill="#64778D"/>
<path transform="translate(541,116)" d="m0 0m-2 1 2 1-5 5-8 4-4 4-9 4h-2v2l-5 2v2l-5 3-3 1v2l-6 2-5 4-1 2-5 2-7 5-6 2v2l-7 5h-2v-2l18-13 16-11 12-8 17-11z" fill="#70889D"/>
<path transform="translate(1346,1547)" d="m0 0h2l-1 4-5 5-9 8-10 7h-2l2-14 17-7z" fill="#64768C"/>
<path transform="translate(1433 1e3)" d="m0 0 2 1 2 11v12l-1 2 1 3 2 2 1 13 1 5-1 10 1 4-3 1-1-2-4-35z" fill="#66798F"/>
<path transform="translate(1181,776)" d="m0 0 5 2 5 5 15 8 12 3 14 2 23 1v2l-4 1h-24l-14-3-16-7-11-7-5-5z" fill="#65788E"/>
<path transform="translate(1454,68)" d="m0 0 4 1v2l-5 2-1 2-7 2-1 2-2-1-1 3h-3l-1 4h-4v2l-9 3-4-2v-3l5-3h2v-2h2v-2l6-2 2-2 3 1 1-2 6-2z" fill="#6C8499"/>
<path transform="translate(717,918)" d="m0 0 2 1 2 35 5 36 2 12v5l-2-1-2-6-4-24-2-17-1-7z" fill="#65778E"/>
<path transform="translate(1685,1099)" d="m0 0 4 1 18 11 1 7v3l4 7-1 4h-2l-9-14-10-11-5-7z" fill="#64768D"/>
<path transform="translate(961,1051)" d="m0 0h2l-1 6-5 16-4 4-5 2v2h-3v2h-2v-2h-2l2-4 8-11 8-13z" fill="#65788E"/>
<path transform="translate(1166,653)" d="m0 0 4 2 6 13 1 4v24l-2-1v-6l-3-3 1-4h2v-5l-4-1-1-3h-4z" fill="#64758C"/>
<path transform="translate(1721,1088)" d="m0 0 3 2v10l2 4 1 14-1 14-2 6v3h-2l-1-3-1-34z" fill="#7F99AC"/>
<path transform="translate(788,1227)" d="m0 0h4l2 8 3 1 3 13v6l-2 4h-3l-3-8-5-19z" fill="#65778E"/>
<path transform="translate(1448,1006)" d="m0 0h1l1 5 2 48v21l-2-1-1-8-1-4v-7l-1-3v-18l-1-10 1-5v-16z" fill="#65778E"/>
<path transform="translate(1896,1268)" d="m0 0 2 2-2 5-3 1-1 5-7 5-5 6-9 7h-3l-2 4-3 1-1 2h-3l-2 4-3 2v-3l5-5 14-12 17-17z" fill="#64768C"/>
<path transform="translate(94,610)" d="m0 0h4l-2 5-10 18-8 13-2 1-1-4 5-12 11-20z" fill="#677A91"/>
<path transform="translate(1208,812)" d="m0 0 13 1h29l-1 3-14 1-9 2v-2l-5 2 6 2 4 2v2l4 2 7 4 1 2-5-2-16-9-14-9z" fill="#64768D"/>
<path transform="translate(1809,1503)" d="m0 0 4 5 14 27-1 3 1 5-2-1-1-3-2-1-1-3-3-1-1 2-2-6v-4l2-1-4-6-4-8v-2h-2v-2l-2-1v-2z" fill="#6E869B"/>
<path transform="translate(1674,1103)" d="m0 0 2 1-1 5-8 4-4 5v8l2 6 3 5 3 3 10 6v3l3-1 2 2-1 3-11-6-8-7-7-14v-7l4-7z" fill="#65778E"/>
<path transform="translate(1459,342)" d="m0 0 4 2 12 22 3 3 5 9 3 3 2 4v3h2v3l3 1 2 6-3-1-12-17-10-15-11-21z" fill="#64758C"/>
<path transform="translate(1732,1080)" d="m0 0 2 4v42l-3 28-2 6-1-4v-11l2-7v-12l1-15v-20z" fill="#64768C"/>
<path transform="translate(818,578)" d="m0 0h2l-1 5-12 25-2 5-4-1 1-10h2v-2h2l-1-5 8-11z" fill="#65788E"/>
<path transform="translate(1504,417)" d="m0 0 3 3 4 11 2 8 2 9v28l-3 1-1-28-5-21-2-6z" fill="#66798F"/>
<path transform="translate(1164,1613)" d="m0 0 9 2 16 8 3 3-3 1-3-1-18-2-4-8z" fill="#64768D"/>
<path transform="translate(1304,405)" d="m0 0h36v2h7l4 2v1h-18l-33-2 1-2z" fill="#64768D"/>
<path transform="translate(807,1022)" d="m0 0 4 4 12 19 12 17 9 12 9 11h-3l-6-5-4-6-6-8v-2h-2l-6-10v-2l-3-1-8-13-1-4h-2l-5-9z" fill="#65778E"/>
<path transform="translate(1798,1497)" d="m0 0h3v2h2l2 3 4 2h-4v2l3 1-1 2h2l5 10 3 4v4l-1 3h-2l-13-23-3-5z" fill="#64768D"/>
<path transform="translate(1836,1349)" d="m0 0h3v2l-18 10-16 8-9 3h-5l1-3 10-4 1-1h5v-2l9-3 2-3 7-1 5-3h2v-2z" fill="#64768D"/>
<path transform="translate(1275,839)" d="m0 0h2l1 7-1 15-2 12h-2l-1-3-1-13v-10z" fill="#66798F"/>
<path transform="translate(900,1130)" d="m0 0 5 2 8 5 5 3h9l3 9-1 3-15-9-11-8-4-4z" fill="#65778E"/>
<path transform="translate(781,55)" d="m0 0 4 1 2 3-2 5 4 1v2l-15 1-5-5 2-4 6-2z" fill="#6C8499"/>
<path transform="translate(261,381)" d="m0 0h2l-2 4-10 11-8 10-13 16-2 3h-2l1-5 2-3h2l2-4 11-14 5-6 4-4h2l2-4z" fill="#697D93"/>
<path transform="translate(1591,284)" d="m0 0m-1 1m-1 1m-1 1m-1 1m-1 1m-1 1m-1 1m-1 1m-1 1m-1 1m-1 1m-1 1m-2 1 2 1-4 6-5 3-7 6-14 8-22 9-1-2 18-8 17-10 13-10z" fill="#65778E"/>
<path transform="translate(719,765)" d="m0 0 1 3-5 23-4 15-1 7-3 8-2 2 1-11 8-32z" fill="#697E94"/>
<path transform="translate(804,48)" d="m0 0 7 1 1 3-2 2h4v3l-3 2h-4l-1-4h-6l-2 1h-6l-5-4z" fill="#62738A"/>
<path transform="translate(802,1036)" d="m0 0h2v2h2l8 14 8 10 4 6 9 12 7 9 1 2-4-2-8-9-11-15-10-15-8-13z" fill="#65788E"/>
<path transform="translate(629,70)" d="m0 0 1 3-3 2-3-1-1 5-2-3-1 4h-3l-4 4-5 1-4 3h-2v-2h-2v2l-5-1 3-2 16-8z" fill="#6F879C"/>
<path transform="translate(1082,1402)" d="m0 0h3l2 9-1 12-5 13-2-3v-5l2-7 1-11z" fill="#65778E"/>
<path transform="translate(1021,1311)" d="m0 0h2l5 9 4 8 1 5h2l3 8 2 4v5l-3-1-13-29z" fill="#65778E"/>
<path transform="translate(791,612)" d="m0 0 2 4h-2l-2 4v3l1 3-3 2-1 3-2 1-2 5-3 1v-2l-4 2 2-5 11-17z" fill="#6E869B"/>
<path transform="translate(1208,706)" d="m0 0 4 1 2 5v5l-1-2h-4l-1-2-4-1-1 5-4 6-2 1v-8l3-5z" fill="#63758B"/>
<path transform="translate(1361,1593)" d="m0 0v3l-6 7-4 2-5 2-2 4-4 1-2 3-5 2-4 2 6-7 17-13z" fill="#64768D"/>
<path transform="translate(1713,1072)" d="m0 0 3 3 3 20v20l-2-1-3-29-1-5z" fill="#62738A"/>
<path transform="translate(1296,695)" d="m0 0 5 1 10 5 5 4 1 2v6l-2-1v-4l-4-1v-3l-4-1-2-1-1 5h-2z" fill="#64768D"/>
<path transform="translate(786,647)" d="m0 0 4 2-8 20h-4l2-9 5-12z" fill="#6B8196"/>
<path transform="translate(1556,1239)" d="m0 0 4 2 8 3 1 5-1 3 2 1-5-1-8-4 1-3z" fill="#6D859A"/>
<path transform="translate(1853,1623)" d="m0 0h1l2 21v8l-2 1v-3h-2l-2-13v-5h3z" fill="#7B94A8"/>
<path transform="translate(778,669)" d="m0 0 3 1-3 11-4 12-1-2h-2l1-9 5-12z" fill="#6E869B"/>
<path transform="translate(261,357)" d="m0 0 2 1-6 8h-2l-1 5-4 6h-2v2l-3 3h-2l-1 4-5 5-2-1 8-10 13-17z" fill="#70899D"/>
<path transform="translate(525,165)" d="m0 0m-2 1h2l-2 4-29 17-3-1 7-5h2v-2l14-7h2v-2z" fill="#677A90"/>
<path transform="translate(496,144)" d="m0 0 2 1-9 8-1 2-5 2-7 5-6 2v2l-7 5h-2v-2l18-13 16-11z" fill="#70899D"/>
<path transform="translate(1247,325)" d="m0 0 2 1-5 4-1 3-4 2-1 2h-2l-1 3h-2v4h-7-3l10-9z" fill="#6B8297"/>
<path transform="translate(388,227)" d="m0 0h2l-2 4-4 4h-2v2l-5 5-10 9-5 4-3-1 13-12z" fill="#70889D"/>
<path transform="translate(704,989)" d="m0 0 2 4 6 28 3 11v2h-2l-6-22-3-15z" fill="#64778D"/>
<path transform="translate(117,564)" d="m0 0 2 2-1 4-5 8 5-1-3 6-4-1v2l-5 2 2-6z" fill="#6F889C"/>
<path transform="translate(1516,806)" d="m0 0v3l-21 32-2-1 2-5 11-15 3-5z" fill="#65778D"/>
<path transform="translate(804,1330)" d="m0 0h1v30h2l1 2v8l-1 5h-2l-1-2z" fill="#7B94A8"/>
<path transform="translate(804,1277)" d="m0 0h1l3 25-1 4-2 3-1-4-1-17h-2l-1-6h3z" fill="#70889D"/>
<path transform="translate(1329,1490)" d="m0 0 2 1-12 11h-2l-2 5-5 5-3 4h-2l-2 6-3-1 8-11 11-12z" fill="#66798F"/>
<path transform="translate(759,1136)" d="m0 0 4 2 4 9 1 5v2 3l-3 1-4-14-2-5z" fill="#7D97AA"/>
<path transform="translate(1598,1026)" d="m0 0h2l3 11v7l-4-2v-4l-4-1 1-6z" fill="#65788E"/>
<path transform="translate(1556,1582)" d="m0 0 4 2-4 17-3 6h-1v-7z" fill="#71889D"/>
<path transform="translate(1433 1e3)" d="m0 0 2 1 2 11v12l-3 2-1-4z" fill="#62738A"/>
<path transform="translate(313,299)" d="m0 0h2l-2 4-7 8h-2l-2 4h-2l-2 4-7 8h-2v2l-4 2 2-4 9-9 7-8z" fill="#718A9E"/>
<path transform="translate(705,40)" d="m0 0 2 1-1 2h-3v2l-10 3-7 3-4-1 3-3z" fill="#65778E"/>
<path transform="translate(1317,718)" d="m0 0h1v7l-6 17-1 2h-2l1-9 5-12z" fill="#65788E"/>
<path transform="translate(1769,1442)" d="m0 0 4 2 4 1 4 7v4l-4-1-2-1v-2l-4-2-1-5z" fill="#6B8297"/>
<path transform="translate(792,1245)" d="m0 0 4 1 4 6-1 5-1 2h-3l-3-8z" fill="#63758C"/>
<path transform="translate(1519,329)" d="m0 0h6l-3 2-13 3h-18l-2-2 20-1z" fill="#64768C"/>
<path transform="translate(416,204)" d="m0 0 2 1-12 11-13 11-3-1 11-10 11-9z" fill="#71899E"/>
<path transform="translate(1265,347)" d="m0 0v3l-16 9-8 5-4-1 10-6h3l1-3z" fill="#687B91"/>
<path transform="translate(1720,1395)" d="m0 0 1 3-11 5-12 5-3-1 5-3 4-3 7-2 3-2h2z" fill="#65788E"/>
<path transform="translate(1522,585)" d="m0 0h1v12l-2 16-3-3 1-5 1-12 1-7z" fill="#66798F"/>
<path transform="translate(1587,830)" d="m0 0 4 1 7 16 4 9-3-1-6-12v-2h-2l-3-6v-2h-2z" fill="#66798F"/>
<path transform="translate(1565,975)" d="m0 0 5 5 2 4 5 2 7 9v2l-4-2-4-5-3-2v-2l-4-2-4-4z" fill="#6D859A"/>
<path transform="translate(771,691)" d="m0 0h2l-1 9-3 9-2-3-1-5 4-9z" fill="#6A8096"/>
<path transform="translate(1028,52)" d="m0 0 9 1 3 2-2 4-6-1-9-3-2-2z" fill="#6D859A"/>
<path transform="translate(1468,847)" d="m0 0 1 4-3 1-2 5-9 18h-2l-1 4-1-2 8-16 8-13z" fill="#65788E"/>
<path transform="translate(1213,687)" d="m0 0 5 1 9 10 8 8-1 2-13-12-6-5z" fill="#66798F"/>
<path transform="translate(142,535)" d="m0 0h3l-2 5-6 9-3-2v-4l1-2 3-2-1-2z" fill="#677A90"/>
<path transform="translate(564,144)" d="m0 0h3v2l-24 12-3 1 1-3 10-5 9-5z" fill="#6A7E94"/>
<path transform="translate(1416,89)" d="m0 0 4 2 4 4-10 1-4 2h-3l1-3 3-1 2-3h3z" fill="#6C8499"/>
<path transform="translate(1265,799)" d="m0 0 8 1v7l-2 5-4-2 1-7-3-1z" fill="#64768D"/>
<path transform="translate(1554,314)" d="m0 0 2 1-4 4-12 6-13 5-1-2 18-8z" fill="#677A90"/>
<path transform="translate(781,55)" d="m0 0 4 1 2 3-1 2h-7l-5 1v-2l-2-1 5-2z" fill="#63758B"/>
<path transform="translate(261,381)" d="m0 0h2l-2 4-10 11-4 4v-4l6-7h2l2-4z" fill="#677B91"/>
<path transform="translate(1477,1200)" d="m0 0h1v15l-1 18-2-2-1-9 2-8z" fill="#7E97AB"/>
<path transform="translate(763,1164)" d="m0 0 3 1 2 5v3l3 1 1 9-4-4-5-12z" fill="#65788E"/>
<path transform="translate(1478,1159)" d="m0 0h2v12l-1 17h-1l-1-19v-9z" fill="#728B9F"/>
<path transform="translate(739,710)" d="m0 0 4 1-3 8h-2v5l-3 3h-2l3-10z" fill="#728B9F"/>
<path transform="translate(1387,374)" d="m0 0h4l-1 3-10 2-15 2 3-3z" fill="#667990"/>
<path transform="translate(1567,1329)" d="m0 0h15l1 3h-20v-2z" fill="#70879B"/>
<path transform="translate(1871,1294)" d="m0 0m-1 1m-1 1m-2 1 2 1-3 5-3 1-1 2h-3l-2 4-3 2v-3l5-5z" fill="#65788E"/>
<path transform="translate(1036,1321)" d="m0 0 1 2 3-1 7 10-1 2-2 1v-2l-3-1-5-8z" fill="#64768D"/>
<path transform="translate(726,1008)" d="m0 0 4 4 3 13-1 4-2-7h-2l-2-12z" fill="#65788E"/>
<path transform="translate(1411,1557)" d="m0 0 3 1-2 2-3 2 1 2-4 3h-3l-6 3 2-4z" fill="#66788F"/>
<path transform="translate(1841,1316)" d="m0 0h2v3h-3l-2 4-7 3-4-1 9-6z" fill="#65778E"/>
<path transform="translate(1339,384)" d="m0 0h5v2l-10 2-12 3-4-1 13-4z" fill="#667990"/>
<path transform="translate(1499,576)" d="m0 0h2v14l-1 1v14l-2 1v-22z" fill="#62738A"/>
<path transform="translate(1218,376)" d="m0 0h2v2l-16 12-3 1v-2h2l2-4z" fill="#66788F"/>
<path transform="translate(1832,1548)" d="m0 0 2 2 5 12-1 4-4-5-3-11z" fill="#6F879C"/>
<path transform="translate(1273,315)" d="m0 0h6l-3 1 1 3-3 3-4-1-3-2 1-3z" fill="#7F99AC"/>
<path transform="translate(552,109)" d="m0 0h4v3l-8 3-1 2h-3l-1 2-4 1 3-5z" fill="#6D859A"/>
<path transform="translate(800,1254)" d="m0 0h1l1 10h-3l-4 1-1-8 1 2h3z" fill="#718A9E"/>
<path transform="translate(1475,1201)" d="m0 0h2v13l-2 8h-2v-8z" fill="#6F879C"/>
<path transform="translate(770,950)" d="m0 0 3 1 9 20 1 5-4-5-7-15z" fill="#677A90"/>
<path transform="translate(189,471)" d="m0 0 1 2-8 11-3-3 4-4 3-5z" fill="#70889D"/>
<path transform="translate(785,997)" d="m0 0 2 2v4l4 1v5h2l2 5-3 1-2-3v-4h-2v-4l-3-1-2-4h2z" fill="#7F99AC"/>
<path transform="translate(1492,834)" d="m0 0 3 1-5 10-6 10-3-1 2-1 2-5 3-4 2-8 2-1z" fill="#6D859A"/>
<path transform="translate(794,1236)" d="m0 0h3l3 13-1 3-4-6z" fill="#70889C"/>
<path transform="translate(1504,1181)" d="m0 0 5 5 4 7-7-2-2-3z" fill="#65778D"/>
<path transform="translate(1731,1138)" d="m0 0h1l-1 16-2 6-1-4v-11l2-6z" fill="#66788F"/>
<path transform="translate(1713,1072)" d="m0 0 3 3 2 13-3 4-2-12z" fill="#677A90"/>
<path transform="translate(1175,678)" d="m0 0 2 2v16l-2-1v-6l-3-3 1-4h2z" fill="#62738A"/>
<path transform="translate(1669,946)" d="m0 0 5 4 11 14h-3l-9-10-4-6z" fill="#64768D"/>
<path transform="translate(838,1070)" d="m0 0h3l11 14 1 2-5-2-5-6-5-7z" fill="#65778E"/>
<path transform="translate(791,612)" d="m0 0 2 4h-2l-2 4v3l1 3h-3l-2-2-2 1 2-5z" fill="#7F98AB"/>
<path transform="translate(596,128)" d="m0 0m-2 1 3 1-4 3-12 6-4-1z" fill="#6A7E94"/>
<path transform="translate(1788,1483)" d="m0 0 4 1 1 4 5 3-2 4-3-1-5-8z" fill="#64768C"/>
<path transform="translate(1518,617)" d="m0 0h1v23l-2-2-1-14 1-5z" fill="#62738A"/>
<path transform="translate(1348,1608)" d="m0 0 5 1-1 4-2 4-2-1v-2h-5z" fill="#7F99AC"/>
<path transform="translate(1261,765)" d="m0 0h14l4 3v3l-3-1-1-2-14-1z" fill="#64768C"/>
<path transform="translate(97,601)" d="m0 0 2 1v3h3l-3 5-7 1 2-5z" fill="#71899E"/>
<path transform="translate(358,255)" d="m0 0h2l-1 3-8 7-9 9-2-1z" fill="#758EA2"/>
<path transform="translate(1731,1392)" d="m0 0 7 1-2 2-9 2h-5l3-4h5z" fill="#66798F"/>
<path transform="translate(704,989)" d="m0 0 2 4 3 13v5l-2 1-3-15z" fill="#65788E"/>
<path transform="translate(785,1217)" d="m0 0 4 1 2 3-1 4-4 1-1-5z" fill="#63748B"/>
<path transform="translate(1225,821)" d="m0 0 6 2v2l4 2 7 4 1 2-5-2-12-7z" fill="#65778E"/>
<path transform="translate(1513,476)" d="m0 0h1v9l-2 7h-2l1-10z" fill="#63758C"/>
<path transform="translate(1454,184)" d="m0 0h2l-1 4-7 10-3 1 2-4z" fill="#65778E"/>
<path transform="translate(1554,1593)" d="m0 0h2v8l-3 6h-1v-7z" fill="#6D8298"/>
<path transform="translate(1358,380)" d="m0 0h6v2l-19 3 3-3z" fill="#65778E"/>
<path transform="translate(1311,1644)" d="m0 0 5 3-4 4-3 2-4-1 5-4z" fill="#66788F"/>
<path transform="translate(1476,869)" d="m0 0 1 4-5 10-2-1 1-5z" fill="#65788E"/>
<path transform="translate(883,1120)" d="m0 0 5 2 9 5 2 4-5-2-11-8z" fill="#677990"/>
<path transform="translate(705,934)" d="m0 0 2 3 1 6-1 4-3-1-1-5z" fill="#7F99AC"/>
<path transform="translate(1343,1606)" d="m0 0m-2 1 2 1-5 7-5 2-4 2 6-7z" fill="#66798F"/>
<path transform="translate(1479,834)" d="m0 0 1 2h-2l-3 6h-2l-2 5-2 2-1-3 8-10z" fill="#6B8297"/>
<path transform="translate(1724,1146)" d="m0 0h2v9l-4 2v-8z" fill="#7F99AC"/>
<path transform="translate(1500,621)" d="m0 0 3 3v7l1 6-3-1-1-7z" fill="#65788E"/>
<path transform="translate(124,552)" d="m0 0 3 1-2 5-2 2-1 3-4 1z" fill="#70889D"/>
<path transform="translate(1232,366)" d="m0 0h3v2l-11 7-3 1 1-3z" fill="#667990"/>
<path transform="translate(1853,1623)" d="m0 0h1v16h-3l-1-7h3z" fill="#71899D"/>
<path transform="translate(1309,1509)" d="m0 0h2l-2 4-2 3h-2l-2 6-3-1 8-11z" fill="#677A90"/>
<path transform="translate(1836,1349)" d="m0 0h3v2l-12 7v-3l4-3h2v-2z" fill="#677A90"/>
<path transform="translate(1265,347)" d="m0 0v3l-12 6 2-4z" fill="#65788E"/>
<path transform="translate(1237,698)" d="m0 0 5 1 12 8-2 1-14-8z" fill="#677990"/>
<path transform="translate(1403,369)" d="m0 0 2 1-2 3-11 2 2-3z" fill="#66798F"/>
<path transform="translate(1372,255)" d="m0 0h2l-2 4-2 3h-2v2l-4 1 2-4 5-5z" fill="#63758C"/>
<path transform="translate(1689,1409)" d="m0 0 4 1-13 8v-3l2-2 5-2z" fill="#667990"/>
<path transform="translate(830,1059)" d="m0 0h3l7 10h-3l-3-3v-2h-2z" fill="#677990"/>
<path transform="translate(739,1054)" d="m0 0 3 1 1 7h-3l-2-1v-6z" fill="#64768D"/>
<path transform="translate(807,1022)" d="m0 0 4 4 5 9-4-1-5-9z" fill="#667990"/>
<path transform="translate(1468,847)" d="m0 0 1 4-3 1-2 5-3 5-2-1 8-13z" fill="#667A90"/>
<path transform="translate(1519,329)" d="m0 0h6l-3 2-7 2h-6v-2z" fill="#66788F"/>
<path transform="translate(1466,324)" d="m0 0 5 2 12 4v1h-8l-9-6z" fill="#65788E"/>
<path transform="translate(339,274)" d="m0 0 2 1-12 12-3-1z" fill="#70889D"/>
<path transform="translate(541,116)" d="m0 0m-2 1 2 1-5 5-6 2 2-4z" fill="#6F879C"/>
<path transform="translate(1619,883)" d="m0 0 5 5 6 8-1 2-7-8-3-5z" fill="#677A90"/>
<path transform="translate(1136,1574)" d="m0 0h2l-1 9-2 4-1-7z" fill="#64778D"/>
<path transform="translate(1516,806)" d="m0 0v3l-7 11-2-1 2-4z" fill="#63758C"/>
<path transform="translate(272,370)" d="m0 0v3l-8 9-2-2 6-7z" fill="#6C8298"/>
<path transform="translate(1247,325)" d="m0 0 2 1-5 4-1 3-6 1v-2z" fill="#677B91"/>
<path transform="translate(1287,1604)" d="m0 0v3l-6 7-4 2v-3l7-6z" fill="#64758C"/>
<path transform="translate(1581,864)" d="m0 0 2 3v2h2l2 4v5l-3-3-3-7z" fill="#64778D"/>
<path transform="translate(1481,860)" d="m0 0 1 3-4 8-2-4 2-4h2z" fill="#677A90"/>
<path transform="translate(1387,374)" d="m0 0h4l-1 3-3 1h-7l3-3z" fill="#64778D"/>
<path transform="translate(1215,351)" d="m0 0 2 1-6 7-4 3-3-1z" fill="#66788E"/>
<path transform="translate(763,1149)" d="m0 0 5 2v3 3l-3 1z" fill="#7F99AC"/>
<path transform="translate(1443,1099)" d="m0 0 2 1 2 7-1 4-2-1z" fill="#687C92"/>
<path transform="translate(801,614)" d="m0 0h2l-1 5-2 4-3 1 3-9z" fill="#66788F"/>
<path transform="translate(245,398)" d="m0 0 2 1-2 5-6 3 2-4z" fill="#6A7F95"/>
<path transform="translate(552,150)" d="m0 0 1 3-11 6h-2l1-3 10-5z" fill="#687C92"/>
<path transform="translate(629,70)" d="m0 0 1 3-3 2-3-1-1 5-2-4 1-2z" fill="#6E869B"/>
<path transform="translate(1455,1250)" d="m0 0" fill="#7F99AC"/>
<path transform="translate(1477,1234)" d="m0 0" fill="#7F99AC"/>
</svg>
